# xmcd CD database file
#
# Track frame offsets:
#	150
#	23895
#	36867
#	51474
#	67074
#	89119
#	120202
#	146777
#	167958
#	180691
#	203216
#	217937
#	231370
#	259210
#	278498
#
# Disc length: 3966 seconds
#
# Revision: 15
# Processed by: cddbd v1.5.2PL0 Copyright (c) Steve Scherf et al.
# Submitted via: CDex 1.79
#
DISCID=e60f7c0f
DTITLE=Yannis Parios - O Erotikos Theodorakis - Live sto Lycabito [CD 2)
DYEAR=2001
DGENRE=Pop
TTITLE0=Agapi Mou, Agapi Mou
TTITLE1=Isoyna Parapono
TTITLE2=Dakrismena Matia
TTITLE3=To Treno Feygei Stis Okto
TTITLE4=Dromoi Palioi
TTITLE5=Nyxta Mesa Sta Matia Sou
TTITLE6=Apo To Parathyro Sou
TTITLE7=Parapono
TTITLE8=Varka Sto Yialo
TTITLE9=Drapetsona
TTITLE10=Xathika
TTITLE11=Aprili Mou
TTITLE12=Strose To Stroma Sou
TTITLE13=O Kaimos
TTITLE14=To Perigoali
EXTD=YEAR: 2001
EXTT0=
EXTT1=
EXTT2=
EXTT3=
EXTT4=
EXTT5=
EXTT6=
EXTT7=
EXTT8=
EXTT9=
EXTT10=
EXTT11=
EXTT12=
EXTT13=
EXTT14=
PLAYORDER=
